<svg width="332" height="332" viewBox="0 0 332 332" fill="none" xmlns="http://www.w3.org/2000/svg">
<g clip-path="url(#clip0_2_113)">
<g filter="url(#filter0_ii_2_113)">
<path fill-rule="evenodd" clip-rule="evenodd" d="M166 0C72.4874 0 0 68.4984 0 161.02C0 209.415 19.8337 251.234 52.1334 280.119C54.8448 282.546 56.4816 285.945 56.5928 289.584L57.4969 319.112C57.7857 328.531 67.5147 334.66 76.1334 330.855L109.082 316.31C111.875 315.079 115.005 314.849 117.948 315.66C133.089 319.823 149.204 322.041 166 322.041C259.513 322.041 332.001 253.542 332.001 161.02C332.001 68.4984 259.513 0 166 0Z" fill="#F7F6F2"/>
</g>
<path fill-rule="evenodd" clip-rule="evenodd" d="M166 0C72.4874 0 0 68.4984 0 161.02C0 209.415 19.8337 251.234 52.1334 280.119C54.8448 282.546 56.4816 285.945 56.5928 289.584L57.4969 319.112C57.7857 328.531 67.5147 334.66 76.1334 330.855L109.082 316.31C111.875 315.079 115.005 314.849 117.948 315.66C133.089 319.823 149.204 322.041 166 322.041C259.513 322.041 332.001 253.542 332.001 161.02C332.001 68.4984 259.513 0 166 0Z" fill="url(#paint0_linear_2_113)" fill-opacity="0.1"/>
<path d="M52.3001 279.933L52.1334 280.119L52.3 279.933C20.0534 251.095 0.25 209.344 0.25 161.02C0.25 68.6454 72.6163 0.25 166 0.25C259.384 0.25 331.751 68.6454 331.751 161.02C331.751 253.395 259.384 321.791 166 321.791C149.226 321.791 133.133 319.576 118.015 315.419C115.016 314.593 111.827 314.827 108.981 316.082L109.082 316.31L108.981 316.082L76.0324 330.626C67.576 334.36 58.0301 328.346 57.7467 319.105L56.8427 289.577C56.7293 285.867 55.0607 282.404 52.3001 279.933Z" stroke="#ACACAC" stroke-opacity="0.1" stroke-width="0.5"/>
<g style="mix-blend-mode:multiply" filter="url(#filter1_if_2_113)">
<path fill-rule="evenodd" clip-rule="evenodd" d="M166 19C83.1905 19 19 79.6582 19 161.59C19 204.446 36.5636 241.478 65.1662 267.057C67.5673 269.206 69.0168 272.217 69.1152 275.439L69.9158 301.587C70.1716 309.928 78.787 315.355 86.4192 311.986L115.597 299.106C118.07 298.015 120.842 297.812 123.448 298.53C136.856 302.217 151.126 304.181 166 304.181C248.81 304.181 313 243.522 313 161.59C313 79.6582 248.81 19 166 19Z" fill="url(#paint1_radial_2_113)" fill-opacity="0.2"/>
</g>
<g filter="url(#filter2_f_2_113)">
<path d="M203.5 214L265 116.5L330 154.5L306.5 239.5L203.5 214Z" fill="url(#paint2_linear_2_113)" fill-opacity="0.05"/>
</g>
<g filter="url(#filter3_f_2_113)">
<path d="M78 214L139.5 116.5L204.5 154.5L181 239.5L78 214Z" fill="url(#paint3_linear_2_113)" fill-opacity="0.05"/>
</g>
<g filter="url(#filter4_f_2_113)">
<path d="M75 222L131 119.5L248 135L221.5 194.5L194 212.5L75 222Z" fill="url(#paint4_linear_2_113)" fill-opacity="0.1"/>
</g>
<g style="mix-blend-mode:overlay" filter="url(#filter5_df_2_113)">
<path fill-rule="evenodd" clip-rule="evenodd" d="M66.3167 212.11L115.079 134.747C122.836 122.44 139.446 119.376 151.084 128.104L189.867 157.191C193.426 159.861 198.322 159.846 201.865 157.157L254.244 117.405C261.235 112.1 270.361 120.466 265.682 127.891L216.92 205.254C209.163 217.561 192.553 220.626 180.915 211.897L142.131 182.809C138.573 180.14 133.676 180.154 130.133 182.843L77.7541 222.596C70.7632 227.901 61.6371 219.534 66.3167 212.11Z" fill="black" fill-opacity="0.5"/>
</g>
<g opacity="0.1" filter="url(#filter6_f_2_113)">
<path fill-rule="evenodd" clip-rule="evenodd" d="M66.3167 208.11L115.079 130.747C122.836 118.44 139.446 115.376 151.084 124.104L189.867 153.191C193.426 155.861 198.322 155.846 201.865 153.157L254.244 113.405C261.235 108.1 270.361 116.466 265.682 123.891L216.92 201.254C209.163 213.561 192.553 216.626 180.915 207.897L142.131 178.809C138.573 176.14 133.676 176.154 130.133 178.843L77.7541 218.596C70.7632 223.901 61.6371 215.534 66.3167 208.11Z" fill="url(#paint5_linear_2_113)"/>
</g>
<g filter="url(#filter7_di_2_113)">
<path fill-rule="evenodd" clip-rule="evenodd" d="M66.3167 208.11L115.079 130.747C122.836 118.44 139.446 115.376 151.084 124.104L189.867 153.191C193.426 155.861 198.322 155.846 201.865 153.157L254.244 113.405C261.235 108.1 270.361 116.466 265.682 123.891L216.92 201.254C209.163 213.561 192.553 216.626 180.915 207.897L142.131 178.809C138.573 176.14 133.676 176.154 130.133 178.843L77.7541 218.596C70.7632 223.901 61.6371 215.534 66.3167 208.11Z" fill="url(#paint6_linear_2_113)"/>
<path d="M181.215 207.497L180.915 207.897L181.215 207.497L142.431 178.409C138.694 175.606 133.552 175.621 129.831 178.445L77.4518 218.197C70.9042 223.166 62.3569 215.33 66.7397 208.377L115.502 131.014L115.079 130.747L115.502 131.014C123.103 118.954 139.379 115.951 150.784 124.504L189.567 153.591C193.304 156.395 198.446 156.38 202.168 153.556L254.546 113.803C261.094 108.835 269.641 116.67 265.259 123.624L216.497 200.988C208.895 213.047 192.619 216.051 181.215 207.497Z" stroke="white" stroke-opacity="0.1"/>
</g>
<g filter="url(#filter8_f_2_113)">
<path d="M132 124.5C132 124.5 125.5 127.5 122 131.5C118.5 135.5 70.5 212 70.5 212L73 215" stroke="white" stroke-opacity="0.8"/>
</g>
<g filter="url(#filter9_f_2_113)">
<path d="M199.5 206.5C203 206.5 208.5 200.5 213.5 193.5C218.5 186.5 261.042 119.78 261.042 119.78L258.49 116.824" stroke="black" stroke-opacity="0.6"/>
</g>
<g filter="url(#filter10_f_2_113)">
<path d="M216.5 152L257.5 117" stroke="url(#paint7_linear_2_113)" stroke-opacity="0.8"/>
</g>
<g filter="url(#filter11_f_2_113)">
<path d="M74.5 214C74.5 214 119.5 180.5 127 175C134.5 169.5 140.5 177 140.5 177" stroke="black" stroke-opacity="0.6"/>
</g>
</g>
<defs>
<filter id="filter0_ii_2_113" x="0" y="0" width="332" height="332" filterUnits="userSpaceOnUse" color-interpolation-filters="sRGB">
<feFlood flood-opacity="0" result="BackgroundImageFix"/>
<feBlend mode="normal" in="SourceGraphic" in2="BackgroundImageFix" result="shape"/>
<feColorMatrix in="SourceAlpha" type="matrix" values="0 0 0 0 0 0 0 0 0 0 0 0 0 0 0 0 0 0 127 0" result="hardAlpha"/>
<feOffset/>
<feGaussianBlur stdDeviation="2"/>
<feComposite in2="hardAlpha" operator="arithmetic" k2="-1" k3="1"/>
<feColorMatrix type="matrix" values="0 0 0 0 1 0 0 0 0 1 0 0 0 0 1 0 0 0 0.1 0"/>
<feBlend mode="normal" in2="shape" result="effect1_innerShadow_2_113"/>
<feColorMatrix in="SourceAlpha" type="matrix" values="0 0 0 0 0 0 0 0 0 0 0 0 0 0 0 0 0 0 127 0" result="hardAlpha"/>
<feOffset/>
<feGaussianBlur stdDeviation="2"/>
<feComposite in2="hardAlpha" operator="arithmetic" k2="-1" k3="1"/>
<feColorMatrix type="matrix" values="0 0 0 0 1 0 0 0 0 1 0 0 0 0 1 0 0 0 0.1 0"/>
<feBlend mode="normal" in2="effect1_innerShadow_2_113" result="effect2_innerShadow_2_113"/>
</filter>
<filter id="filter1_if_2_113" x="-1" y="-1" width="334" height="334" filterUnits="userSpaceOnUse" color-interpolation-filters="sRGB">
<feFlood flood-opacity="0" result="BackgroundImageFix"/>
<feBlend mode="normal" in="SourceGraphic" in2="BackgroundImageFix" result="shape"/>
<feColorMatrix in="SourceAlpha" type="matrix" values="0 0 0 0 0 0 0 0 0 0 0 0 0 0 0 0 0 0 127 0" result="hardAlpha"/>
<feMorphology radius="8" operator="erode" in="SourceAlpha" result="effect1_innerShadow_2_113"/>
<feOffset/>
<feGaussianBlur stdDeviation="2"/>
<feComposite in2="hardAlpha" operator="arithmetic" k2="-1" k3="1"/>
<feColorMatrix type="matrix" values="0 0 0 0 1 0 0 0 0 1 0 0 0 0 1 0 0 0 0.2 0"/>
<feBlend mode="normal" in2="shape" result="effect1_innerShadow_2_113"/>
<feGaussianBlur stdDeviation="10" result="effect2_foregroundBlur_2_113"/>
</filter>
<filter id="filter2_f_2_113" x="193.5" y="106.5" width="146.5" height="143" filterUnits="userSpaceOnUse" color-interpolation-filters="sRGB">
<feFlood flood-opacity="0" result="BackgroundImageFix"/>
<feBlend mode="normal" in="SourceGraphic" in2="BackgroundImageFix" result="shape"/>
<feGaussianBlur stdDeviation="5" result="effect1_foregroundBlur_2_113"/>
</filter>
<filter id="filter3_f_2_113" x="68" y="106.5" width="146.5" height="143" filterUnits="userSpaceOnUse" color-interpolation-filters="sRGB">
<feFlood flood-opacity="0" result="BackgroundImageFix"/>
<feBlend mode="normal" in="SourceGraphic" in2="BackgroundImageFix" result="shape"/>
<feGaussianBlur stdDeviation="5" result="effect1_foregroundBlur_2_113"/>
</filter>
<filter id="filter4_f_2_113" x="65" y="109.5" width="193" height="122.5" filterUnits="userSpaceOnUse" color-interpolation-filters="sRGB">
<feFlood flood-opacity="0" result="BackgroundImageFix"/>
<feBlend mode="normal" in="SourceGraphic" in2="BackgroundImageFix" result="shape"/>
<feGaussianBlur stdDeviation="5" result="effect1_foregroundBlur_2_113"/>
</filter>
<filter id="filter5_df_2_113" x="55.0352" y="105.733" width="221.928" height="132.534" filterUnits="userSpaceOnUse" color-interpolation-filters="sRGB">
<feFlood flood-opacity="0" result="BackgroundImageFix"/>
<feColorMatrix in="SourceAlpha" type="matrix" values="0 0 0 0 0 0 0 0 0 0 0 0 0 0 0 0 0 0 127 0" result="hardAlpha"/>
<feOffset dy="10"/>
<feGaussianBlur stdDeviation="2"/>
<feColorMatrix type="matrix" values="0 0 0 0 0 0 0 0 0 0 0 0 0 0 0 0 0 0 0.25 0"/>
<feBlend mode="normal" in2="BackgroundImageFix" result="effect1_dropShadow_2_113"/>
<feBlend mode="normal" in="SourceGraphic" in2="effect1_dropShadow_2_113" result="shape"/>
<feGaussianBlur stdDeviation="5" result="effect2_foregroundBlur_2_113"/>
</filter>
<filter id="filter6_f_2_113" x="57.0352" y="103.733" width="217.928" height="124.534" filterUnits="userSpaceOnUse" color-interpolation-filters="sRGB">
<feFlood flood-opacity="0" result="BackgroundImageFix"/>
<feBlend mode="normal" in="SourceGraphic" in2="BackgroundImageFix" result="shape"/>
<feGaussianBlur stdDeviation="4" result="effect1_foregroundBlur_2_113"/>
</filter>
<filter id="filter7_di_2_113" x="62.0352" y="110.733" width="207.928" height="114.534" filterUnits="userSpaceOnUse" color-interpolation-filters="sRGB">
<feFlood flood-opacity="0" result="BackgroundImageFix"/>
<feColorMatrix in="SourceAlpha" type="matrix" values="0 0 0 0 0 0 0 0 0 0 0 0 0 0 0 0 0 0 127 0" result="hardAlpha"/>
<feOffset dy="2"/>
<feGaussianBlur stdDeviation="1.5"/>
<feColorMatrix type="matrix" values="0 0 0 0 0 0 0 0 0 0 0 0 0 0 0 0 0 0 0.25 0"/>
<feBlend mode="normal" in2="BackgroundImageFix" result="effect1_dropShadow_2_113"/>
<feBlend mode="normal" in="SourceGraphic" in2="effect1_dropShadow_2_113" result="shape"/>
<feColorMatrix in="SourceAlpha" type="matrix" values="0 0 0 0 0 0 0 0 0 0 0 0 0 0 0 0 0 0 127 0" result="hardAlpha"/>
<feOffset/>
<feGaussianBlur stdDeviation="4"/>
<feComposite in2="hardAlpha" operator="arithmetic" k2="-1" k3="1"/>
<feColorMatrix type="matrix" values="0 0 0 0 1 0 0 0 0 1 0 0 0 0 1 0 0 0 0.2 0"/>
<feBlend mode="normal" in2="shape" result="effect2_innerShadow_2_113"/>
</filter>
<filter id="filter8_f_2_113" x="63.8838" y="118.046" width="74.3257" height="103.274" filterUnits="userSpaceOnUse" color-interpolation-filters="sRGB">
<feFlood flood-opacity="0" result="BackgroundImageFix"/>
<feBlend mode="normal" in="SourceGraphic" in2="BackgroundImageFix" result="shape"/>
<feGaussianBlur stdDeviation="3" result="effect1_foregroundBlur_2_113"/>
</filter>
<filter id="filter9_f_2_113" x="193.5" y="110.498" width="74.1641" height="102.502" filterUnits="userSpaceOnUse" color-interpolation-filters="sRGB">
<feFlood flood-opacity="0" result="BackgroundImageFix"/>
<feBlend mode="normal" in="SourceGraphic" in2="BackgroundImageFix" result="shape"/>
<feGaussianBlur stdDeviation="3" result="effect1_foregroundBlur_2_113"/>
</filter>
<filter id="filter10_f_2_113" x="210.175" y="110.62" width="53.6494" height="47.7606" filterUnits="userSpaceOnUse" color-interpolation-filters="sRGB">
<feFlood flood-opacity="0" result="BackgroundImageFix"/>
<feBlend mode="normal" in="SourceGraphic" in2="BackgroundImageFix" result="shape"/>
<feGaussianBlur stdDeviation="3" result="effect1_foregroundBlur_2_113"/>
</filter>
<filter id="filter11_f_2_113" x="68.2021" y="166.485" width="78.688" height="53.916" filterUnits="userSpaceOnUse" color-interpolation-filters="sRGB">
<feFlood flood-opacity="0" result="BackgroundImageFix"/>
<feBlend mode="normal" in="SourceGraphic" in2="BackgroundImageFix" result="shape"/>
<feGaussianBlur stdDeviation="3" result="effect1_foregroundBlur_2_113"/>
</filter>
<linearGradient id="paint0_linear_2_113" x1="54.5" y1="277.5" x2="356.181" y2="214.456" gradientUnits="userSpaceOnUse">
<stop stop-color="#4B67E9"/>
<stop offset="0.380208" stop-color="#B038E8"/>
<stop offset="1" stop-color="#EF6C66"/>
</linearGradient>
<radialGradient id="paint1_radial_2_113" cx="0" cy="0" r="1" gradientUnits="userSpaceOnUse" gradientTransform="translate(170.5 170.5) rotate(129.491) scale(139.946)">
<stop stop-color="white" stop-opacity="0"/>
<stop offset="0.27649" stop-color="white" stop-opacity="0.5"/>
<stop offset="0.700589" stop-color="#E7E7E8" stop-opacity="0.740395"/>
<stop offset="1" stop-color="#C0C5D3"/>
</radialGradient>
<linearGradient id="paint2_linear_2_113" x1="248" y1="162" x2="316.5" y2="181.5" gradientUnits="userSpaceOnUse">
<stop/>
<stop offset="0.911758" stop-opacity="0"/>
</linearGradient>
<linearGradient id="paint3_linear_2_113" x1="122.5" y1="162" x2="191" y2="181.5" gradientUnits="userSpaceOnUse">
<stop/>
<stop offset="0.911758" stop-opacity="0"/>
</linearGradient>
<linearGradient id="paint4_linear_2_113" x1="83.5" y1="213" x2="211.5" y2="204" gradientUnits="userSpaceOnUse">
<stop stop-color="#4E5AE4"/>
<stop offset="0.307292" stop-color="#9D2BD0"/>
<stop offset="1" stop-color="#D55E67"/>
</linearGradient>
<linearGradient id="paint5_linear_2_113" x1="65" y1="220" x2="267" y2="112" gradientUnits="userSpaceOnUse">
<stop stop-color="#2771E9"/>
<stop offset="0.302083" stop-color="#792EE7"/>
<stop offset="0.640221" stop-color="#A82ACC"/>
<stop offset="1" stop-color="#D5504B"/>
</linearGradient>
<linearGradient id="paint6_linear_2_113" x1="65" y1="220" x2="249.5" y2="125" gradientUnits="userSpaceOnUse">
<stop stop-color="#307CF4"/>
<stop offset="0.302083" stop-color="#863AF7"/>
<stop offset="0.640221" stop-color="#BC37E2"/>
<stop offset="1" stop-color="#EF615C"/>
</linearGradient>
<linearGradient id="paint7_linear_2_113" x1="237" y1="117" x2="237" y2="152" gradientUnits="userSpaceOnUse">
<stop stop-color="white"/>
<stop offset="1" stop-color="white" stop-opacity="0"/>
</linearGradient>
<clipPath id="clip0_2_113">
<rect width="332.001" height="332" fill="white"/>
</clipPath>
</defs>
</svg>
